<svg xmlns="http://www.w3.org/2000/svg" width="117" height="39" viewBox="0 0 117 39">
    <g fill="none" fillRule="evenodd">
        <g fillRule="nonzero">
            <g>
                <g>
                    <g>
                        <path fill="#000" d="M117 29.435l-9.605-8.788V9.41c0-1.944-1.588-3.539-3.524-3.539H10.689c-1.936 0-3.524 1.595-3.524 3.539v26.052c0 1.944 1.588 3.538 3.524 3.538h93.182c1.936 0 3.524-1.594 3.524-3.538v-5.677l9.605-.35z" transform="translate(-76 -19) translate(-9) translate(85 19)"/>
                        <path fill="#000" d="M4.105 34.295C1.86 34.295 0 32.468 0 30.173V4.122C0 1.866 1.82 0 4.105 0h93.182c2.246 0 4.105 1.828 4.105 4.122v10.965l10.457 9.604-10.457.389v5.093c0 2.256-1.82 4.122-4.105 4.122H4.105z" transform="translate(-76 -19) translate(-9) translate(85 19)"/>
                        <path fill="#FFF" d="M110.377 24.147l-9.604-8.788V4.122c0-1.945-1.588-3.539-3.525-3.539H4.105C2.17.583.581 2.177.581 4.122v26.051c0 1.945 1.588 3.539 3.524 3.539h93.182c1.936 0 3.524-1.594 3.524-3.539v-5.676l9.566-.35z" transform="translate(-76 -19) translate(-9) translate(85 19)"/>
                    </g>
                    <path fill="#000" d="M22.143 27c-.278 0-.557-.038-.796-.115-.28-.077-.478-.231-.678-.385l-1.832-1.462c-.04.577-.24 1.039-.598 1.385-.398.385-.916.577-1.594.577H13.14c-.278 0-.557-.038-.796-.115-.28-.077-.478-.231-.678-.385l-2.948-2.385c-.279-.23-.438-.461-.558-.769-.12-.27-.159-.577-.159-.884V8.115c0-.653.2-1.192.598-1.538C8.996 6.192 9.514 6 10.23 6h3.546c.279 0 .518.038.757.115.279.077.518.193.717.347l1.833 1.5c.04-.577.239-1.039.597-1.385.399-.385.917-.577 1.594-.577h3.546c.279 0 .518.038.757.115.279.077.518.193.717.347l2.988 2.423c.239.23.438.461.558.769.12.27.159.577.159.884v14.347c0 .653-.2 1.192-.598 1.538-.398.385-.916.577-1.593.577h-3.666z" transform="translate(-76 -19) translate(-9) translate(85 19)"/>
                    <path fill="#000" d="M34.082 27c-.266 0-.532-.039-.76-.116-.266-.077-.456-.23-.646-.385l-2.812-2.389c-.266-.231-.418-.462-.532-.77-.114-.27-.152-.579-.152-.887v-2.389l-3.078-4.2c-.418-.578-.684-1.079-.874-1.541-.152-.462-.228-1.117-.228-1.965V8.119c0-.655.19-1.194.57-1.541.38-.385.874-.578 1.558-.578h3.268c.266 0 .494.039.722.116.266.077.494.192.684.346l1.786 1.503c.038-.578.228-1.04.57-1.387.38-.385.874-.578 1.52-.578h3.382c.266 0 .494.039.722.116.266.077.494.192.684.346l2.85 2.428c.228.231.418.462.532.77.114.27.152.579.152.887v4.238c0 .848-.076 1.503-.228 1.965-.152.463-.418.964-.874 1.542l-3.078 4.2v2.389c0 .655-.19 1.156-.532 1.541-.38.385-.912.578-1.558.578h-3.648z" transform="translate(-76 -19) translate(-9) translate(85 19)"/>
                    <path fill="#000" d="M51.082 27c-.266 0-.532-.039-.76-.116-.266-.077-.456-.23-.646-.385l-2.812-2.389c-.266-.231-.418-.462-.532-.77-.114-.27-.152-.579-.152-.887v-2.389l-3.078-4.2c-.418-.578-.684-1.079-.874-1.541-.152-.462-.228-1.117-.228-1.965V8.119c0-.655.19-1.194.57-1.541.38-.385.874-.578 1.558-.578h3.268c.266 0 .494.039.722.116.266.077.494.192.684.346l1.786 1.503c.038-.578.228-1.04.57-1.387.38-.385.874-.578 1.52-.578h3.382c.266 0 .494.039.722.116.266.077.494.192.684.346l2.85 2.428c.228.231.418.462.532.77.114.27.152.579.152.887v4.238c0 .848-.076 1.503-.228 1.965-.152.463-.418.964-.874 1.542l-3.078 4.2v2.389c0 .655-.19 1.156-.532 1.541-.38.385-.912.578-1.558.578h-3.648z" transform="translate(-76 -19) translate(-9) translate(85 19)"/>
                    <g fill="#FF7F00">
                        <path d="M.849 16.961c-.579 0-.849-.273-.849-.858V.858C0 .273.27 0 .849 0h3.627c.579 0 .849.273.849.858v5.108h3.897V.858c0-.585.27-.858.849-.858h3.627c.579 0 .849.273.849.858v15.284c0 .585-.27.858-.85.858h-3.626c-.579 0-.85-.273-.85-.858v-5.264H5.326v5.225c0 .585-.27.858-.85.858H.85zM22.457 16.961c-.618 0-.85-.273-.85-.858v-3.002l-3.55-4.835c-.732-.975-.887-1.443-.887-2.885V.858c0-.585.27-.858.85-.858h3.588c.578 0 .849.273.849.858v3.86c0 .312 0 .663.193.975l1.08 1.715c.154.273.309.39.579.39h.231c.27 0 .386-.117.579-.39l1.08-1.715c.193-.312.193-.663.193-.975V.858c0-.585.27-.858.85-.858h3.472c.579 0 .849.273.849.858V5.38c0 1.442-.193 1.95-.888 2.885l-3.55 4.835v3.002c0 .585-.27.858-.848.858h-3.82zM38.894 16.961c-.617 0-.849-.273-.849-.858v-3.002l-3.55-4.835c-.733-.975-.887-1.443-.887-2.885V.858c0-.585.27-.858.849-.858h3.588c.579 0 .849.273.849.858v3.86c0 .312 0 .663.193.975l1.08 1.715c.155.273.309.39.579.39h.231c.27 0 .386-.117.58-.39l1.08-1.715c.193-.312.193-.663.193-.975V.858c0-.585.27-.858.848-.858h3.473c.579 0 .849.273.849.858V5.38c0 1.442-.193 1.95-.887 2.885l-3.55 4.835v3.002c0 .585-.27.858-.85.858h-3.82z" transform="translate(-76 -19) translate(-9) translate(85 19) translate(9 7)"/>
                    </g>
                    <g>
                        <path fill="#000" d="M4.819 0h6.067s2.195-.038 4.15 1.267c2.396 1.574 2.516 1.728 3.034 2.265.719.768.839 2.188.918 3.302.08 1.151-.279 3.992-.279 4.53 0 .537-.639 4.837-8.023 4.684C3.262 15.894 4.82 0 4.82 0z" transform="translate(-76 -19) translate(-9) translate(85 19) translate(59 6)"/>
                        <path fill="#000" d="M.109 4.684C-.33-.422.549.039 2.903.039h2.994c.279 0 .518.038.758.115.28.076.519.192.718.345l2.994 2.419c.24.23.439.46.559.768.12.268.16.576.16.883v14.32c0 .652-.2 1.19-.6 1.535-.398.384-.917.576-1.596.576H5.338c-.28 0-.559-.038-.798-.115-.28-.077-.48-.23-.679-.384L.907 18.12c-.28-.23-.439-.461-.558-.768-.12-.269-.16-.576-.16-.883v-.039" transform="translate(-76 -19) translate(-9) translate(85 19) translate(59 6)"/>
                        <path fill="#FF7F00" d="M2.025 17.468c-.599 0-.878-.269-.878-.845V1.613c0-.576.28-.845.878-.845h7.384c4.39 0 5.708 1.843 5.708 4.53v2.956c0 2.688-1.317 4.53-5.708 4.53H6.655v3.84c0 .575-.28.844-.878.844H2.025zm4.55-8.83H8.73c.958 0 1.118-.537 1.118-1.152V6.258c0-.614-.2-1.152-1.118-1.152H6.575v3.532z" transform="translate(-76 -19) translate(-9) translate(85 19) translate(59 6)"/>
                    </g>
                    <path fill="#000" d="M76 10.692V8.115c0-.653.2-1.192.597-1.538.399-.385.916-.577 1.593-.577h10.633c.279 0 .518.038.757.115.278.077.517.193.716.347l2.987 2.423c.24.23.438.461.558.769.12.27.159.577.159.884v3.424c0 .807-1.155.923-1.155.923v4.192S94 19.423 94 20.192v4.693c0 .653-.2 1.192-.597 1.538-.399.385-.916.577-1.593.577H81.177c-.279 0-.558-.038-.796-.115-.28-.077-.478-.231-.677-.385l-2.947-2.385c-.28-.23-.438-.461-.558-.769-.12-.27-.16-.577-.16-.884v-11.77H76z" transform="translate(-76 -19) translate(-9) translate(85 19)"/>
                    <path fill="#FF7F00" d="M76.883 23.884c-.602 0-.883-.272-.883-.854V7.854c0-.582.28-.854.883-.854h11.234c.602 0 .883.272.883.854v2.756c0 .582-.28.853-.883.853h-6.7v1.825h4.734c.602 0 .883.271.883.854v2.522c0 .583-.28.854-.883.854h-4.734v2.019h6.7c.602 0 .883.271.883.853v2.756c0 .582-.28.854-.883.854H76.883v-.116z" transform="translate(-76 -19) translate(-9) translate(85 19)"/>
                </g>
            </g>
        </g>
    </g>
</svg>
